# xmcd
#
# Track frame offsets:
#	150
#	21452
#	37108
#	55296
#	77686
#	93737
#	113708
#	122242
#	145912
#	163122
#	191866
#	210238
#	234996
#
# Disc length: 3332 seconds
#
# Revision: 1
# Processed by: cddbd v1.5.2PL0 Copyright (c) Steve Scherf et al.
# Submitted via: audiograbber 1.83.01
#
DISCID=b80d020d
DTITLE=Fred And The Roaches - Fred And The Roaches
DYEAR=1997
DGENRE=R&B
TTITLE0=Great Balls Of Fire
TTITLE1=Little Sister
TTITLE2=Black Limousine
TTITLE3=Cold Day In Hell
TTITLE4=Call Me The Breeze
TTITLE5=Sweet Virginia
TTITLE6=Willin'
TTITLE7=When I Leave Here
TTITLE8=Maybellene
TTITLE9=Jelly Jelly
TTITLE10=Sugar Sweet
TTITLE11=Come On In My Kitchen
TTITLE12=Untitled
EXTD=
EXTT0=
EXTT1=
EXTT2=
EXTT3=
EXTT4=
EXTT5=
EXTT6=
EXTT7=
EXTT8=
EXTT9=
EXTT10=
EXTT11=
EXTT12=
PLAYORDER=
